<?xml version="1.0" standalone="no"?>
<!DOCTYPE svg PUBLIC "-//W3C//DTD SVG 20010904//EN"
 "http://www.w3.org/TR/2001/REC-SVG-20010904/DTD/svg10.dtd">
<svg version="1.0" xmlns="http://www.w3.org/2000/svg"
 width="512.000000pt" height="512.000000pt" viewBox="0 0 512.000000 512.000000"
 preserveAspectRatio="xMidYMid meet">
<metadata>
Created by potrace 1.14, written by Peter Selinger 2001-2017
</metadata>
<g transform="translate(0.000000,512.000000) scale(0.100000,-0.100000)"
fill="#000000" stroke="none">
<path d="M2431 5105 c-179 -51 -346 -202 -538 -490 -82 -122 -196 -320 -406
-700 -189 -344 -204 -381 -194 -490 5 -54 184 -695 223 -803 21 -56 98 -139
178 -191 35 -23 67 -48 69 -55 6 -15 -19 -56 -34 -56 -19 0 -155 95 -196 138
-23 23 -55 69 -70 102 -15 32 -31 59 -35 59 -4 1 -154 -75 -335 -168 -369
-190 -412 -220 -464 -327 -29 -58 -39 -109 -100 -477 -179 -1082 -180 -1091
-170 -1157 33 -203 215 -360 418 -360 32 0 35 2 29 23 -13 48 -18 97 -12 122
l6 25 145 0 145 0 0 815 c0 782 1 817 19 853 23 45 56 77 94 91 20 8 440 11
1358 11 1305 0 1331 0 1369 -20 45 -23 73 -60 89 -115 7 -28 11 -284 11 -832
l0 -793 140 0 c130 0 140 -1 150 -20 11 -20 0 -116 -16 -142 -12 -19 135 -2
201 23 85 31 203 149 234 233 42 113 42 114 -84 876 -132 802 -127 774 -161
842 -53 104 -99 137 -464 324 l-334 173 -36 -65 c-43 -80 -95 -134 -182 -191
-70 -46 -87 -50 -106 -31 -25 25 -12 48 51 89 80 54 144 115 168 161 10 20 69
213 130 430 117 411 126 463 101 553 -13 46 -409 757 -529 950 -202 324 -379
506 -560 575 -76 29 -225 36 -302 15z m231 -1156 c78 -16 700 -276 740 -309
18 -15 47 -52 63 -81 23 -44 29 -67 29 -120 1 -36 -4 -72 -10 -80 -7 -8 -78
-171 -159 -364 -81 -192 -154 -363 -162 -379 -29 -55 -102 -123 -166 -152
l-62 -29 -375 0 c-447 0 -447 0 -545 99 -65 66 -71 77 -225 446 -156 373 -177
472 -124 578 29 58 70 97 129 122 196 85 644 263 678 269 62 13 129 12 189 0z"/>
<path d="M1234 1986 c-69 -30 -64 42 -64 -1023 l0 -963 1395 0 1395 0 -2 965
-3 965 -33 32 -32 33 -1313 2 c-1090 2 -1317 0 -1343 -11z m1441 -740 c104
-48 160 -145 153 -263 -5 -79 -25 -127 -75 -176 -49 -50 -97 -70 -176 -75
-302 -19 -402 393 -127 517 64 29 159 28 225 -3z"/>
<path d="M870 215 c0 -75 127 -205 200 -205 20 0 21 4 18 108 l-3 107 -107 3
c-93 2 -108 0 -108 -13z"/>
<path d="M4037 223 c-4 -3 -7 -55 -7 -114 l0 -108 28 8 c46 14 85 37 119 73
35 36 78 123 68 138 -7 11 -198 14 -208 3z"/>
</g>
</svg>
